<?xml version="1.0" encoding="utf-8"?>
<!-- Generator: Adobe Illustrator 16.0.0, SVG Export Plug-In . SVG Version: 6.00 Build 0)  -->
<!DOCTYPE svg PUBLIC "-//W3C//DTD SVG 1.1//EN" "http://www.w3.org/Graphics/SVG/1.1/DTD/svg11.dtd">
<svg version="1.1" id="Layer_1" xmlns="http://www.w3.org/2000/svg" xmlns:xlink="http://www.w3.org/1999/xlink" x="0px" y="0px"
	 width="130.677px" height="27.654px" viewBox="0 0 130.677 27.654" enable-background="new 0 0 130.677 27.654"
	 xml:space="preserve">
<path fill="#FFFFFF" d="M35.136,15.184c0,0.94-0.147,1.815-0.449,2.634c-0.301,0.813-0.728,1.522-1.284,2.134l2.714,2.619
	l-2.29,1.854l-2.899-2.829c-0.407,0.145-0.832,0.259-1.271,0.336c-0.44,0.076-0.896,0.114-1.361,0.114
	c-2.05,0-3.713-0.644-4.987-1.936c-1.272-1.295-1.912-2.938-1.912-4.928v-2.911c0-1.983,0.636-3.625,1.905-4.92
	c1.27-1.297,2.929-1.946,4.971-1.946c2.031,0,3.683,0.649,4.957,1.946c1.272,1.295,1.908,2.938,1.908,4.92L35.136,15.184
	L35.136,15.184z M31.392,12.251c0-1.152-0.271-2.103-0.813-2.841c-0.547-0.742-1.314-1.112-2.307-1.112
	c-1.015,0-1.79,0.369-2.326,1.105s-0.807,1.687-0.807,2.848v2.935c0,1.17,0.273,2.127,0.817,2.865
	c0.543,0.741,1.321,1.111,2.338,1.111c0.985,0,1.748-0.37,2.289-1.111c0.54-0.738,0.809-1.695,0.809-2.865V12.251z"/>
<path fill="#FFFFFF" d="M37.093,15.696c0-1.808,0.509-3.28,1.533-4.417c1.021-1.138,2.444-1.705,4.276-1.705
	c1.836,0,3.267,0.567,4.286,1.705c1.022,1.136,1.533,2.609,1.533,4.417v0.233c0,1.813-0.51,3.288-1.533,4.42
	c-1.021,1.135-2.441,1.698-4.265,1.698c-1.843,0-3.276-0.563-4.298-1.698c-1.024-1.132-1.533-2.605-1.533-4.42V15.696L37.093,15.696
	z M40.847,15.929c0,1.005,0.156,1.798,0.472,2.371c0.312,0.571,0.852,0.859,1.604,0.859c0.732,0,1.259-0.288,1.579-0.865
	c0.316-0.579,0.477-1.369,0.477-2.365v-0.233c0-0.979-0.159-1.762-0.477-2.352c-0.32-0.587-0.854-0.882-1.601-0.882
	c-0.74,0-1.271,0.296-1.583,0.89c-0.315,0.591-0.472,1.373-0.472,2.344V15.929z"/>
<path fill="#FFFFFF" d="M49.879,15.829c0-1.873,0.409-3.385,1.227-4.533c0.819-1.148,1.972-1.722,3.46-1.722
	c0.555,0,1.058,0.128,1.506,0.381c0.449,0.256,0.85,0.622,1.203,1.095V4.487h3.755v17.329h-3.253l-0.268-1.481
	c-0.372,0.561-0.802,0.982-1.295,1.274c-0.493,0.293-1.049,0.438-1.671,0.438c-1.481,0-2.63-0.547-3.443-1.644
	c-0.812-1.096-1.223-2.542-1.223-4.343v-0.232L49.879,15.829L49.879,15.829z M53.632,16.062c0,0.977,0.144,1.736,0.428,2.282
	c0.285,0.546,0.767,0.816,1.44,0.816c0.393,0,0.736-0.073,1.039-0.218c0.3-0.145,0.545-0.357,0.735-0.638V13.45
	c-0.19-0.318-0.436-0.562-0.73-0.733c-0.296-0.169-0.638-0.255-1.023-0.255c-0.666,0-1.146,0.308-1.44,0.922
	c-0.3,0.615-0.449,1.43-0.449,2.443L53.632,16.062L53.632,16.062z"/>
<path fill="#FFFFFF" d="M68.653,22.048c-1.769,0-3.183-0.554-4.236-1.665c-1.058-1.109-1.583-2.504-1.583-4.178v-0.421
	c0-1.828,0.479-3.322,1.438-4.483c0.958-1.156,2.332-1.731,4.116-1.726c1.629,0,2.907,0.487,3.835,1.466
	c0.924,0.979,1.387,2.306,1.387,3.979v1.968h-6.865l-0.024,0.063c0.08,0.613,0.335,1.118,0.758,1.517
	c0.42,0.395,0.982,0.595,1.688,0.595c0.71,0,1.277-0.056,1.705-0.168c0.423-0.106,0.962-0.302,1.616-0.575l0.888,2.287
	c-0.525,0.386-1.206,0.705-2.037,0.962C70.502,21.923,69.609,22.048,68.653,22.048z M68.385,12.463c-0.54,0-0.945,0.192-1.216,0.577
	c-0.271,0.385-0.436,0.9-0.494,1.543l0.033,0.057h3.231v-0.287c0-0.609-0.124-1.075-0.377-1.4
	C69.312,12.625,68.917,12.463,68.385,12.463z"/>
<path fill="#FFFFFF" d="M91.564,15.184c0,1.991-0.63,3.634-1.892,4.928c-1.263,1.292-2.912,1.936-4.95,1.936
	c-2.052,0-3.715-0.644-4.988-1.936c-1.271-1.295-1.908-2.938-1.908-4.928v-2.911c0-1.983,0.636-3.625,1.903-4.92
	C81,6.056,82.657,5.407,84.701,5.407c2.026,0,3.677,0.649,4.953,1.946c1.271,1.295,1.909,2.938,1.909,4.92V15.184z M87.822,12.251
	c0-1.152-0.271-2.103-0.814-2.841c-0.546-0.742-1.314-1.112-2.305-1.112c-1.017,0-1.792,0.369-2.33,1.105
	c-0.536,0.736-0.805,1.687-0.805,2.848v2.935c0,1.17,0.274,2.127,0.816,2.865c0.546,0.741,1.325,1.111,2.339,1.111
	c0.984,0,1.747-0.37,2.289-1.111c0.538-0.738,0.81-1.695,0.81-2.865V12.251z"/>
<path fill="#FFFFFF" d="M96.996,9.797l0.144,1.689c0.396-0.602,0.878-1.07,1.457-1.405c0.577-0.339,1.221-0.507,1.935-0.507
	c1.178,0,2.097,0.381,2.76,1.143c0.662,0.766,0.997,1.979,0.997,3.646v7.454h-3.756v-7.465c0-0.69-0.142-1.176-0.429-1.461
	c-0.285-0.287-0.707-0.429-1.262-0.429c-0.349,0-0.658,0.063-0.928,0.188c-0.27,0.126-0.502,0.302-0.694,0.522v8.645h-3.745V9.797
	H96.996z"/>
<path fill="#FFFFFF" d="M111.817,22.048c-1.771,0-3.185-0.554-4.237-1.665c-1.056-1.109-1.583-2.504-1.583-4.178v-0.421
	c0-1.828,0.479-3.322,1.439-4.483c0.958-1.156,2.328-1.731,4.115-1.726c1.629,0,2.906,0.487,3.832,1.466
	c0.927,0.979,1.389,2.306,1.389,3.979v1.968h-6.863l-0.022,0.063c0.081,0.613,0.333,1.118,0.756,1.517
	c0.421,0.395,0.985,0.595,1.688,0.595c0.713,0,1.279-0.056,1.706-0.168c0.427-0.106,0.964-0.302,1.615-0.575l0.891,2.287
	c-0.524,0.386-1.207,0.705-2.04,0.962C113.667,21.923,112.77,22.048,111.817,22.048z M111.55,12.463
	c-0.54,0-0.945,0.192-1.217,0.577c-0.271,0.385-0.435,0.9-0.493,1.543l0.034,0.057h3.229v-0.287c0-0.609-0.125-1.075-0.377-1.4
	C112.476,12.625,112.084,12.463,111.55,12.463z"/>
<path fill="#FFFFFF" d="M7.468,7.193C3.896,7.193,1,10.087,1,13.656c0,3.572,2.895,6.467,6.467,6.467
	c3.569,0,6.463-2.895,6.463-6.467C13.93,10.087,11.036,7.193,7.468,7.193z M7.468,18.651c-2.76,0-4.997-2.237-4.997-4.995
	s2.237-4.995,4.997-4.995c2.756,0,4.994,2.237,4.994,4.995S10.224,18.651,7.468,18.651z"/>
<path fill="#FFFFFF" d="M9.231,12.544c-0.046-0.048-0.096-0.096-0.154-0.144c-1.579-1.272-1.612-2.477-1.612-2.477
	s-0.109,1.201-1.558,2.437c-0.022,0.02-0.034,0.04-0.055,0.06c-0.557,0.465-0.921,1.156-0.921,1.938
	c0,1.401,1.135,2.536,2.535,2.536c1.398,0,2.534-1.135,2.534-2.536C10,13.646,9.704,13.005,9.231,12.544z"/>
<g>
	<path fill="#FFFFFF" d="M124.776,17.628v0.865h-1.465v4.025h-1.029v-4.025h-1.471v-0.865H124.776z"/>
	<path fill="#FFFFFF" d="M128.616,17.628h1.473v4.891h-0.952V19.21c0-0.092,0.001-0.229,0.003-0.398
		c0.002-0.169,0.004-0.303,0.004-0.395l-0.928,4.104h-0.995l-0.922-4.104c0,0.092,0.001,0.226,0.004,0.395
		c0.001,0.17,0.003,0.307,0.003,0.398v3.309h-0.951v-4.891h1.486l0.89,3.846L128.616,17.628z"/>
</g>
</svg>
